HIERARCHY
ROOT newVegas:Hips
{
	OFFSET 0.000000 96.479958 0.000000
	CHANNELS 6 Xposition Yposition Zposition Xrotation Yrotation Zrotation
	JOINT newVegas:Pelvis
	{
		OFFSET 0.000000 0.000000 0.000000
		CHANNELS 3 Xrotation Yrotation Zrotation
		JOINT newVegas:LeftUpLeg
		{
			OFFSET 18.735201 -5.666702 -4.541200
			CHANNELS 3 Xrotation Yrotation Zrotation
			JOINT newVegas:LeftLeg
			{
				OFFSET -0.021200 -31.938179 0.493100
				CHANNELS 3 Xrotation Yrotation Zrotation
				JOINT newVegas:LeftFoot
				{
					OFFSET 0.021200 -31.938179 -4.336299
					CHANNELS 3 Xrotation Yrotation Zrotation
					JOINT newVegas:LeftToeBase
					{
						OFFSET 0.943001 -26.722000 15.023500
						CHANNELS 3 Xrotation Yrotation Zrotation
						End Site
						{
							OFFSET 0.000000 30.670183 0.000000
						}
					}
				}
				JOINT newVegas:Left_PantLeg
				{
					OFFSET 0.663870 -9.044666 -1.108900
					CHANNELS 3 Xrotation Yrotation Zrotation
					End Site
					{
						OFFSET 1.415995 20.635357 0.000000
					}
				}
			}
		}
		JOINT newVegas:RightUpLeg
		{
			OFFSET -18.735201 -5.666702 -4.541200
			CHANNELS 3 Xrotation Yrotation Zrotation
			JOINT newVegas:RightLeg
			{
				OFFSET 0.018946 -31.938133 0.493100
				CHANNELS 3 Xrotation Yrotation Zrotation
				JOINT newVegas:RightFoot
				{
					OFFSET -0.018946 -31.938126 -4.336299
					CHANNELS 3 Xrotation Yrotation Zrotation
					JOINT newVegas:RightToeBase
					{
						OFFSET -0.943001 -26.722004 15.023500
						CHANNELS 3 Xrotation Yrotation Zrotation
						End Site
						{
							OFFSET 0.000000 30.670187 0.000000
						}
					}
				}
				JOINT newVegas:Right_PantLeg
				{
					OFFSET -0.661674 -9.044716 -1.108900
					CHANNELS 3 Xrotation Yrotation Zrotation
					End Site
					{
						OFFSET -1.415958 20.635269 0.000000
					}
				}
			}
		}
	}
	JOINT newVegas:Spine
	{
		OFFSET 0.000000 10.199997 -0.299500
		CHANNELS 3 Xrotation Yrotation Zrotation
		JOINT newVegas:Spine1
		{
			OFFSET 0.000000 11.900002 -1.516600
			CHANNELS 3 Xrotation Yrotation Zrotation
			JOINT newVegas:Spine2
			{
				OFFSET 0.000000 13.600006 -2.842500
				CHANNELS 3 Xrotation Yrotation Zrotation
				JOINT newVegas:Neck
				{
					OFFSET 0.000000 9.624100 -2.890100
					CHANNELS 3 Xrotation Yrotation Zrotation
					JOINT newVegas:Head
					{
						OFFSET 0.000000 14.068802 -1.351900
						CHANNELS 3 Xrotation Yrotation Zrotation
						JOINT newVegas:Hair_Back
						{
							OFFSET 0.000000 3.231903 -17.524799
							CHANNELS 3 Xrotation Yrotation Zrotation
							End Site
							{
								OFFSET 0.000000 19.849884 0.000000
							}
						}
						JOINT newVegas:Hair_Front
						{
							OFFSET 0.000000 31.260406 4.573800
							CHANNELS 3 Xrotation Yrotation Zrotation
							JOINT newVegas:Hair_Front1
							{
								OFFSET 0.000000 2.284103 11.993300
								CHANNELS 3 Xrotation Yrotation Zrotation
								JOINT newVegas:Hair_Front2
								{
									OFFSET 0.000000 2.284103 11.993300
									CHANNELS 3 Xrotation Yrotation Zrotation
									End Site
									{
										OFFSET 0.000000 12.208862 0.000000
									}
								}
							}
						}
						JOINT newVegas:Jowel
						{
							OFFSET 0.000000 -7.458206 6.864100
							CHANNELS 3 Xrotation Yrotation Zrotation
							End Site
							{
								OFFSET 0.000000 19.849884 0.000000
							}
						}
					}
				}
				JOINT newVegas:LeftShoulder
				{
					OFFSET 15.263000 10.923401 -0.547700
					CHANNELS 3 Xrotation Yrotation Zrotation
					JOINT newVegas:LeftArm
					{
						OFFSET 25.438599 -2.830597 -13.032500
						CHANNELS 3 Xrotation Yrotation Zrotation
						JOINT newVegas:LeftForeArm
						{
							OFFSET 29.960503 0.000000 0.000000
							CHANNELS 3 Xrotation Yrotation Zrotation
							JOINT newVegas:LeftHand
							{
								OFFSET 27.849251 0.000000 0.000000
								CHANNELS 3 Xrotation Yrotation Zrotation
								JOINT newVegas:LeftHandThumb1
								{
									OFFSET 4.487587 -3.305161 6.305391
									CHANNELS 3 Xrotation Yrotation Zrotation
									JOINT newVegas:LeftHandThumb2
									{
										OFFSET 5.480453 -3.164139 3.164143
										CHANNELS 3 Xrotation Yrotation Zrotation
										JOINT newVegas:LeftHandThumb3
										{
											OFFSET 5.159721 -2.978973 2.978967
											CHANNELS 3 Xrotation Yrotation Zrotation
											End Site
											{
												OFFSET 2.494507 5.926697 1.738678
											}
										}
									}
								}
								JOINT newVegas:LeftHandIndex1
								{
									OFFSET 18.578728 -0.527832 5.208049
									CHANNELS 3 Xrotation Yrotation Zrotation
									JOINT newVegas:LeftHandIndex2
									{
										OFFSET 3.192009 0.000000 0.000000
										CHANNELS 3 Xrotation Yrotation Zrotation
										JOINT newVegas:LeftHandIndex3
										{
											OFFSET 3.835129 0.000000 0.000000
											CHANNELS 3 Xrotation Yrotation Zrotation
											End Site
											{
												OFFSET -0.034599 3.816971 0.371180
											}
										}
									}
								}
								JOINT newVegas:LeftHandMiddle1
								{
									OFFSET 18.476105 0.000000 0.000000
									CHANNELS 3 Xrotation Yrotation Zrotation
									JOINT newVegas:LeftHandMiddle2
									{
										OFFSET 3.324875 0.000000 0.000000
										CHANNELS 3 Xrotation Yrotation Zrotation
										JOINT newVegas:LeftHandMiddle3
										{
											OFFSET 4.596550 0.000000 0.000000
											CHANNELS 3 Xrotation Yrotation Zrotation
											End Site
											{
												OFFSET 0.057701 4.578827 0.399218
											}
										}
									}
								}
								JOINT newVegas:LeftHandRing1
								{
									OFFSET 17.732719 0.121887 -4.201567
									CHANNELS 3 Xrotation Yrotation Zrotation
									JOINT newVegas:LeftHandRing2
									{
										OFFSET 2.733170 0.000000 0.000000
										CHANNELS 3 Xrotation Yrotation Zrotation
										JOINT newVegas:LeftHandRing3
										{
											OFFSET 3.178268 0.000000 0.000000
											CHANNELS 3 Xrotation Yrotation Zrotation
											End Site
											{
												OFFSET 0.119102 3.170624 0.185394
											}
										}
									}
								}
								JOINT newVegas:LeftHandPinky1
								{
									OFFSET 15.989624 -0.606689 -7.535461
									CHANNELS 3 Xrotation Yrotation Zrotation
									JOINT newVegas:LeftHandPinky2
									{
										OFFSET 2.538986 0.000000 0.000000
										CHANNELS 3 Xrotation Yrotation Zrotation
										JOINT newVegas:LeftHandPinky3
										{
											OFFSET 2.593102 0.000000 0.000000
											CHANNELS 3 Xrotation Yrotation Zrotation
											End Site
											{
												OFFSET -0.150902 2.584198 0.152708
											}
										}
									}
								}
							}
							JOINT newVegas:Left_Sleeve
							{
								OFFSET 0.267448 -0.649796 0.577675
								CHANNELS 3 Xrotation Yrotation Zrotation
								End Site
								{
									OFFSET 0.000000 15.991241 0.000000
								}
							}
							JOINT newVegas:Left_CapeC
							{
								OFFSET 15.715958 -8.608795 -6.935905
								CHANNELS 3 Xrotation Yrotation Zrotation
								JOINT newVegas:Left_CapeC1
								{
									OFFSET 0.000000 -8.688499 0.000000
									CHANNELS 3 Xrotation Yrotation Zrotation
									End Site
									{
										OFFSET 0.000000 8.688499 0.000000
									}
								}
							}
						}
						JOINT newVegas:Left_CapeB
						{
							OFFSET 26.118385 -8.608795 -7.079235
							CHANNELS 3 Xrotation Yrotation Zrotation
							JOINT newVegas:Left_CapeB1
							{
								OFFSET 0.000000 -8.688499 0.000000
								CHANNELS 3 Xrotation Yrotation Zrotation
								End Site
								{
									OFFSET 0.000000 8.688499 0.000000
								}
							}
						}
						JOINT newVegas:Left_CapeA
						{
							OFFSET 5.115639 -8.608795 -10.395809
							CHANNELS 3 Xrotation Yrotation Zrotation
							JOINT newVegas:Left_CapeA1
							{
								OFFSET 0.000000 -8.688499 0.000000
								CHANNELS 3 Xrotation Yrotation Zrotation
								End Site
								{
									OFFSET 0.000000 8.688499 0.000000
								}
							}
						}
					}
				}
				JOINT newVegas:RightShoulder
				{
					OFFSET -15.263000 10.923401 -0.547700
					CHANNELS 3 Xrotation Yrotation Zrotation
					JOINT newVegas:RightArm
					{
						OFFSET -25.438599 -2.830597 -13.032500
						CHANNELS 3 Xrotation Yrotation Zrotation
						JOINT newVegas:RightForeArm
						{
							OFFSET -29.960503 0.000000 0.000000
							CHANNELS 3 Xrotation Yrotation Zrotation
							JOINT newVegas:RightHand
							{
								OFFSET -27.849251 0.000000 0.000000
								CHANNELS 3 Xrotation Yrotation Zrotation
								JOINT newVegas:RightHandThumb1
								{
									OFFSET -4.487587 -3.305161 6.305391
									CHANNELS 3 Xrotation Yrotation Zrotation
									JOINT newVegas:RightHandThumb2
									{
										OFFSET -5.480453 -3.164139 3.164143
										CHANNELS 3 Xrotation Yrotation Zrotation
										JOINT newVegas:RightHandThumb3
										{
											OFFSET -5.159721 -2.978973 2.978967
											CHANNELS 3 Xrotation Yrotation Zrotation
											End Site
											{
												OFFSET -2.494507 5.926697 1.738678
											}
										}
									}
								}
								JOINT newVegas:RightHandIndex1
								{
									OFFSET -18.578728 -0.527832 5.208049
									CHANNELS 3 Xrotation Yrotation Zrotation
									JOINT newVegas:RightHandIndex2
									{
										OFFSET -3.192009 0.000000 0.000000
										CHANNELS 3 Xrotation Yrotation Zrotation
										JOINT newVegas:RightHandIndex3
										{
											OFFSET -3.835129 0.000000 0.000000
											CHANNELS 3 Xrotation Yrotation Zrotation
											End Site
											{
												OFFSET 0.034599 3.816971 0.371180
											}
										}
									}
								}
								JOINT newVegas:RightHandMiddle1
								{
									OFFSET -18.476105 0.000000 0.000000
									CHANNELS 3 Xrotation Yrotation Zrotation
									JOINT newVegas:RightHandMiddle2
									{
										OFFSET -3.324875 0.000000 0.000000
										CHANNELS 3 Xrotation Yrotation Zrotation
										JOINT newVegas:RightHandMiddle3
										{
											OFFSET -4.596550 0.000000 0.000000
											CHANNELS 3 Xrotation Yrotation Zrotation
											End Site
											{
												OFFSET -0.057701 4.578827 0.399218
											}
										}
									}
								}
								JOINT newVegas:RightHandRing1
								{
									OFFSET -17.732719 0.121887 -4.201567
									CHANNELS 3 Xrotation Yrotation Zrotation
									JOINT newVegas:RightHandRing2
									{
										OFFSET -2.733170 0.000000 0.000000
										CHANNELS 3 Xrotation Yrotation Zrotation
										JOINT newVegas:RightHandRing3
										{
											OFFSET -3.178268 0.000000 0.000000
											CHANNELS 3 Xrotation Yrotation Zrotation
											End Site
											{
												OFFSET -0.119102 3.170624 0.185394
											}
										}
									}
								}
								JOINT newVegas:RightHandPinky1
								{
									OFFSET -15.989624 -0.606689 -7.535461
									CHANNELS 3 Xrotation Yrotation Zrotation
									JOINT newVegas:RightHandPinky2
									{
										OFFSET -2.538986 0.000000 0.000000
										CHANNELS 3 Xrotation Yrotation Zrotation
										JOINT newVegas:RightHandPinky3
										{
											OFFSET -2.593102 0.000000 0.000000
											CHANNELS 3 Xrotation Yrotation Zrotation
											End Site
											{
												OFFSET 0.150902 2.584198 0.152708
											}
										}
									}
								}
							}
							JOINT newVegas:Right_CapeC
							{
								OFFSET -15.715958 -8.608795 -6.935905
								CHANNELS 3 Xrotation Yrotation Zrotation
								JOINT newVegas:Right_CapeC1
								{
									OFFSET 0.000000 -8.688499 0.000000
									CHANNELS 3 Xrotation Yrotation Zrotation
									End Site
									{
										OFFSET 0.000000 8.688499 0.000000
									}
								}
							}
							JOINT newVegas:Right_Sleeve
							{
								OFFSET -0.267448 -0.649994 0.577675
								CHANNELS 3 Xrotation Yrotation Zrotation
								End Site
								{
									OFFSET 0.000000 15.991302 0.000000
								}
							}
						}
						JOINT newVegas:Right_CapeA
						{
							OFFSET -5.115540 -8.608795 -10.395824
							CHANNELS 3 Xrotation Yrotation Zrotation
							JOINT newVegas:Right_CapeA1
							{
								OFFSET 0.000000 -8.688499 0.000000
								CHANNELS 3 Xrotation Yrotation Zrotation
								End Site
								{
									OFFSET 0.000000 8.688499 0.000000
								}
							}
						}
						JOINT newVegas:Right_CapeB
						{
							OFFSET -26.118187 -8.608795 -7.079266
							CHANNELS 3 Xrotation Yrotation Zrotation
							JOINT newVegas:Right_CapeB1
							{
								OFFSET 0.000000 -8.688499 0.000000
								CHANNELS 3 Xrotation Yrotation Zrotation
								End Site
								{
									OFFSET 0.000000 8.688499 0.000000
								}
							}
						}
					}
				}
				JOINT newVegas:Left_Collar
				{
					OFFSET 18.625099 8.655502 8.828100
					CHANNELS 3 Xrotation Yrotation Zrotation
					JOINT newVegas:Left_Collar1
					{
						OFFSET 14.783401 10.540405 -1.259500
						CHANNELS 3 Xrotation Yrotation Zrotation
						End Site
						{
							OFFSET 0.000000 18.199875 0.000000
						}
					}
				}
				JOINT newVegas:Collar_Back
				{
					OFFSET 0.000000 15.630707 -20.132601
					CHANNELS 3 Xrotation Yrotation Zrotation
					End Site
					{
						OFFSET 0.000000 22.523010 0.000000
					}
				}
				JOINT newVegas:Left_Peck
				{
					OFFSET 17.239599 -5.132599 25.482599
					CHANNELS 3 Xrotation Yrotation Zrotation
					End Site
					{
						OFFSET 0.000000 22.523010 0.000000
					}
				}
				JOINT newVegas:Right_Peck
				{
					OFFSET -17.239599 -5.132202 25.482599
					CHANNELS 3 Xrotation Yrotation Zrotation
					End Site
					{
						OFFSET 0.000000 22.523010 0.000000
					}
				}
				JOINT newVegas:Right_Collar
				{
					OFFSET -18.625099 8.655792 8.828100
					CHANNELS 3 Xrotation Yrotation Zrotation
					JOINT newVegas:Right_Collar1
					{
						OFFSET -14.783401 10.539993 -1.259500
						CHANNELS 3 Xrotation Yrotation Zrotation
						End Site
						{
							OFFSET 0.000000 18.199631 0.000000
						}
					}
				}
			}
		}
		JOINT newVegas:Belly
		{
			OFFSET 0.000000 -6.540398 9.014299
			CHANNELS 3 Xrotation Yrotation Zrotation
			End Site
			{
				OFFSET 0.000000 11.566666 0.000000
			}
		}
	}
	JOINT newVegas:ElvisFacialAnim_Joint
	{
		OFFSET 1.000000 -95.330101 -8.825800
		CHANNELS 3 Xrotation Yrotation Zrotation
		End Site
		{
			OFFSET 0.000000 35.315800 0.000000
		}
	}
}
MOTION
Frames: 4
Frame Time: 0.033333
0.475283 53.168892 9.838408 -9.438734 -1.985368 1.571187 0.000001 0.000000 -0.000000 -98.806500 -2.775054 13.485533 87.036937 -7.719911 -5.100101 21.544109 0.466860 1.686565 0.000000 -0.000000 -0.000000 0.000001 -0.000000 0.000000 -102.896602 1.527603 -7.876812 96.688158 -8.963568 1.697537 14.426913 -2.377662 -7.420598 0.000000 -0.000000 0.000000 0.000001 0.000002 -0.000000 20.191485 -0.608756 -3.447421 2.261970 -0.106719 -0.382695 2.262172 -0.110120 -0.386536 0.571273 0.193532 0.023039 0.571272 0.193533 0.023038 -0.000002 -0.000000 -0.000000 0.571341 0.193534 0.023038 0.571267 0.193532 0.023038 -0.000002 -0.000000 -0.000000 -0.000002 -0.000000 -0.000000 1.995745 -14.614525 -7.214132 -17.841130 -15.822046 -54.588617 -0.000010 -57.099538 -0.000032 25.260756 -2.196461 15.358809 6.704617 -2.646945 1.603631 18.722040 22.579989 -9.756964 0.000002 0.000002 -0.000008 1.270398 6.255405 -55.163876 0.947130 3.195547 -33.011892 0.000000 -0.000000 0.000001 -0.585532 4.092800 -44.490199 0.868671 3.071554 -31.576357 0.000000 0.000001 -0.000000 2.333295 7.248566 -38.416932 0.415655 2.169169 -21.692140 -0.000000 0.000003 0.000002 1.910219 7.276718 -27.959608 0.218144 1.585283 -15.668322 -0.000001 -0.000003 -0.000000 -0.000000 -0.000001 -0.000000 -0.000000 -0.000001 -0.000000 -0.000001 -0.000001 0.000000 -0.000000 -0.000001 0.000001 -0.000000 -0.000001 0.000000 -0.000000 -0.000001 0.000001 -0.000001 -0.000000 0.000000 1.435551 17.431358 11.953195 -24.987373 29.634883 52.674791 -0.000006 37.697621 -0.000000 23.508195 7.536400 -0.753306 4.380041 3.395466 -16.864287 30.486174 -13.841323 18.212235 0.000000 -0.000002 -0.000003 1.162881 -5.380686 49.577758 0.883835 -2.731654 35.852346 -0.000002 0.000001 -0.000003 -0.571177 -3.679438 46.258252 0.499438 -2.100014 26.752193 0.000001 0.000002 -0.000000 -0.191909 -3.454230 35.803455 0.302862 -1.653629 20.756021 0.000000 0.000001 -0.000000 2.057526 -7.461596 25.931074 0.379008 -1.841947 23.252028 0.000000 -0.000002 -0.000000 -0.000001 -0.000000 -0.000001 0.000003 0.000002 -0.000002 -0.000001 -0.000001 -0.000001 -0.000000 -0.000001 -0.000001 -0.000000 0.000000 -0.000001 -0.000000 -0.000001 -0.000001 -0.000000 -0.000000 -0.000002 -0.000001 0.000000 0.000000 -0.000001 0.000000 0.000000 -0.000001 0.000000 0.000000 -0.000001 0.000000 0.000000 -0.000001 0.000000 0.000000 -0.000001 0.000000 0.000000 -0.000001 0.000000 0.000000 0.000001 -0.000000 0.000000 0.000001 0.000000 -0.000000 
0.472771 53.169273 9.840955 -9.434565 -1.985409 1.571427 -0.000000 -0.000000 -0.000000 -98.809546 -2.774848 13.485578 87.036247 -7.719914 -5.100110 21.543679 0.466818 1.686466 -0.000000 -0.000000 -0.000000 0.000001 0.000000 0.000000 -102.899716 1.527463 -7.876835 96.687618 -8.963583 1.697544 14.426379 -2.377550 -7.420636 0.000000 -0.000002 -0.000000 -0.000001 0.000000 -0.000000 20.184585 -0.608842 -3.447472 2.282762 -0.106720 -0.382696 2.259921 -0.110120 -0.386536 0.569341 0.193563 0.023048 0.569346 0.193563 0.023048 -0.000000 -0.000000 0.000000 0.569412 0.193565 0.023047 0.569265 0.193561 0.023050 -0.000000 -0.000000 -0.000000 -0.000000 -0.000000 0.000000 1.996166 -14.609078 -7.216167 -17.844496 -15.825159 -54.583914 -0.000012 -57.115107 -0.000027 25.261677 -2.192061 15.358809 6.704617 -2.646945 1.603627 18.722037 22.579989 -9.756965 0.000001 -0.000002 -0.000005 1.270398 6.255404 -55.163869 0.947129 3.195550 -33.011896 -0.000001 -0.000001 0.000000 -0.585529 4.092800 -44.490203 0.868669 3.071549 -31.576357 -0.000001 0.000000 0.000000 2.333296 7.248566 -38.416935 0.415653 2.169171 -21.692143 0.000002 0.000001 -0.000001 1.910220 7.276718 -27.959610 0.218140 1.585279 -15.668319 -0.000000 -0.000005 -0.000001 -0.000000 -0.000001 -0.000001 -0.000000 -0.000001 -0.000001 -0.000001 -0.000001 -0.000001 0.000001 0.000001 0.000001 0.000001 0.000001 0.000000 0.000001 0.000001 0.000001 -0.000000 0.000001 0.000000 1.436213 17.427407 11.950268 -24.993098 29.628271 52.677127 -0.000004 37.721267 0.000009 23.516083 7.528600 -0.750484 4.380038 3.395464 -16.864285 30.486181 -13.841326 18.212232 0.000000 -0.000001 0.000001 1.162884 -5.380690 49.577765 0.883836 -2.731658 35.852339 -0.000001 0.000002 -0.000002 -0.571174 -3.679439 46.258259 0.499437 -2.100017 26.752200 -0.000001 -0.000002 -0.000000 -0.191906 -3.454233 35.803455 0.302867 -1.653627 20.756016 -0.000000 -0.000003 -0.000000 2.057534 -7.461599 25.931080 0.379009 -1.841949 23.252027 0.000002 0.000003 0.000001 -0.000001 0.000000 0.000001 -0.000001 -0.000003 0.000002 -0.000001 0.000000 0.000001 -0.000000 0.000003 -0.000003 -0.000000 0.000004 -0.000003 -0.000000 0.000003 -0.000003 -0.000000 0.000003 -0.000003 0.000001 0.000000 -0.000000 0.000001 0.000000 -0.000000 0.000001 0.000000 -0.000000 0.000001 0.000000 -0.000000 0.000001 0.000000 -0.000000 0.000001 0.000000 -0.000000 0.000001 0.000000 -0.000000 -0.000001 -0.000000 0.000000 -0.000000 -0.000000 -0.000000 
0.470197 53.169037 9.843942 -9.422640 -1.985545 1.572093 -0.000000 0.000000 0.000000 -98.820434 -2.774628 13.485627 87.036090 -7.719797 -5.100116 21.542811 0.466708 1.686300 -0.000000 0.000000 -0.000000 -0.000000 0.000000 0.000000 -102.911867 1.524794 -7.874845 96.686669 -8.966544 1.697190 14.426650 -2.377255 -7.427779 -0.000000 0.000000 -0.000000 0.000001 0.000002 -0.000001 20.164940 -0.609067 -3.447627 2.341943 -0.106719 -0.382695 2.253486 -0.110119 -0.386537 0.563539 0.193551 0.023065 0.563541 0.193552 0.023065 -0.000001 -0.000000 0.000000 0.563463 0.193547 0.023066 0.563609 0.193553 0.023064 -0.000001 -0.000000 -0.000000 -0.000001 -0.000000 0.000000 1.997339 -14.593546 -7.222064 -17.854087 -15.833871 -54.570592 -0.000013 -57.159480 -0.000017 25.264516 -2.179477 15.358771 6.704620 -2.646945 1.603627 18.722037 22.579987 -9.756967 0.000002 0.000000 -0.000006 1.270396 6.255405 -55.163873 0.947130 3.195549 -33.011896 -0.000000 0.000003 0.000002 -0.585532 4.092801 -44.490199 0.868670 3.071551 -31.576361 -0.000000 0.000001 -0.000000 2.333290 7.248568 -38.416939 0.415651 2.169172 -21.692146 -0.000000 0.000003 0.000002 1.910219 7.276720 -27.959613 0.218142 1.585282 -15.668317 -0.000004 -0.000005 0.000001 -0.000000 0.000001 -0.000001 -0.000000 0.000001 -0.000001 -0.000001 0.000001 -0.000001 -0.000001 -0.000002 -0.000000 -0.000001 -0.000001 -0.000000 -0.000001 -0.000002 -0.000000 -0.000003 0.000000 -0.000001 1.438099 17.416072 11.942026 -25.009368 29.609505 52.683694 -0.000008 37.788455 -0.000000 23.538586 7.506496 -0.742395 4.380039 3.395466 -16.864290 30.486177 -13.841319 18.212232 0.000000 -0.000001 -0.000001 1.162887 -5.380689 49.577765 0.883834 -2.731653 35.852343 -0.000002 0.000001 -0.000003 -0.571173 -3.679438 46.258259 0.499438 -2.100010 26.752196 0.000001 0.000001 -0.000002 -0.191908 -3.454229 35.803452 0.302865 -1.653625 20.756019 -0.000000 -0.000001 -0.000000 2.057527 -7.461597 25.931081 0.379010 -1.841951 23.252028 0.000001 -0.000000 0.000000 -0.000003 -0.000001 0.000002 -0.000003 -0.000004 0.000003 -0.000003 -0.000001 0.000001 -0.000001 -0.000002 -0.000001 -0.000001 -0.000001 -0.000001 -0.000001 -0.000002 -0.000001 -0.000001 -0.000001 -0.000002 0.000001 0.000000 0.000000 0.000001 0.000000 0.000000 0.000001 0.000000 0.000000 0.000001 0.000000 0.000000 0.000001 0.000000 0.000000 0.000001 0.000000 0.000000 0.000001 0.000000 0.000000 -0.000000 0.000000 0.000000 -0.000000 0.000000 0.000000 
0.467554 53.168350 9.847335 -9.403870 -1.985740 1.573150 0.000000 -0.000000 0.000000 -98.838192 -2.774459 13.485736 87.036008 -7.719691 -5.100137 21.541911 0.466539 1.685949 0.000000 0.000000 -0.000000 -0.000004 0.000000 -0.000000 -102.931415 1.521365 -7.872248 96.685993 -8.970382 1.696723 14.426888 -2.376830 -7.437046 0.000000 -0.000000 0.000000 0.000000 0.000004 0.000001 20.134045 -0.609442 -3.447882 2.434892 -0.106720 -0.382695 2.243345 -0.110119 -0.386537 0.554462 0.193552 0.023095 0.554461 0.193553 0.023096 0.000001 -0.000000 -0.000000 0.554467 0.193550 0.023096 0.554542 0.193554 0.023094 -0.000000 0.000000 -0.000000 0.000001 -0.000000 -0.000000 1.999149 -14.569159 -7.231485 -17.869170 -15.847328 -54.549757 -0.000042 -57.229305 -0.000054 25.269241 -2.159754 15.358491 6.704623 -2.646943 1.603627 18.722044 22.579994 -9.756965 0.000003 -0.000003 -0.000003 1.270397 6.255403 -55.163866 0.947131 3.195551 -33.011903 0.000000 -0.000000 -0.000000 -0.585532 4.092800 -44.490199 0.868669 3.071551 -31.576357 -0.000000 0.000002 0.000000 2.333295 7.248564 -38.416935 0.415652 2.169172 -21.692145 -0.000001 0.000001 0.000001 1.910218 7.276717 -27.959612 0.218141 1.585277 -15.668314 -0.000002 -0.000005 0.000002 -0.000000 0.000001 -0.000003 -0.000000 0.000001 -0.000003 -0.000001 0.000002 -0.000003 -0.000002 0.000002 -0.000000 -0.000002 0.000002 -0.000001 -0.000002 0.000002 -0.000000 -0.000004 0.000002 -0.000001 1.441062 17.398216 11.929258 -25.034839 29.580156 52.693905 -0.000013 37.893989 0.000008 23.573942 7.471782 -0.729615 4.380036 3.395471 -16.864282 30.486177 -13.841325 18.212235 -0.000000 0.000001 0.000001 1.162880 -5.380686 49.577761 0.883836 -2.731653 35.852346 -0.000002 -0.000001 -0.000003 -0.571174 -3.679439 46.258266 0.499438 -2.100013 26.752196 -0.000000 -0.000001 -0.000002 -0.191913 -3.454226 35.803455 0.302868 -1.653629 20.756021 0.000000 -0.000001 -0.000000 2.057523 -7.461597 25.931085 0.379009 -1.841947 23.252025 0.000000 0.000003 0.000000 -0.000001 0.000004 -0.000003 0.000000 0.000000 0.000000 -0.000001 0.000004 -0.000003 -0.000002 0.000003 -0.000003 -0.000002 0.000003 -0.000003 -0.000002 0.000003 -0.000003 -0.000002 0.000003 -0.000003 0.000001 -0.000000 0.000000 0.000001 -0.000000 0.000000 0.000001 -0.000000 0.000000 0.000001 -0.000000 0.000000 0.000001 -0.000000 0.000000 0.000001 -0.000000 0.000000 0.000001 -0.000000 0.000000 -0.000000 -0.000000 -0.000000 0.000000 -0.000000 0.000000 
